<?xml version="1.0" encoding="UTF-8"?>
<!-- Created with Inkscape (http://www.inkscape.org/) -->
<svg width="24" height="24" version="1.1" viewBox="0 0 24 24" xmlns="http://www.w3.org/2000/svg" xmlns:cc="http://creativecommons.org/ns#" xmlns:dc="http://purl.org/dc/elements/1.1/" xmlns:rdf="http://www.w3.org/1999/02/22-rdf-syntax-ns#">
 <metadata>
  <rdf:RDF>
   <cc:Work rdf:about="">
    <dc:format>image/svg+xml</dc:format>
    <dc:type rdf:resource="http://purl.org/dc/dcmitype/StillImage"/>
    <dc:title/>
   </cc:Work>
  </rdf:RDF>
 </metadata>
 <rect width="24" height="24" fill-rule="evenodd" style="paint-order:normal"/>
 <path transform="scale(1,-1)" d="m21.5-16a9.5 3.5 0 0 1-4.75 3.03 9.5 3.5 0 0 1-9.5 0 9.5 3.5 0 0 1-4.75-3.03" fill="none" stroke="#7870bc" stroke-width="2"/>
 <path d="m13.3 6.08a4.73 4.72 0 0 1 0.943 2.82 4.73 4.72 0 0 1-4.73 4.72 4.73 4.72 0 0 1-3.47-1.52 6 5.99 0 0 0 6 5.82 6 5.99 0 0 0 6-5.99 6 5.99 0 0 0-4.75-5.85z" fill="#fff" fill-rule="evenodd" stroke="#161d3f" stroke-linejoin="round" stroke-width="4" style="paint-order:stroke fill markers"/>
 <path d="m21.5 16a9.5 3.5 0 0 1-4.75 3.03 9.5 3.5 0 0 1-9.5 0 9.5 3.5 0 0 1-4.75-3.03" fill="none" stroke="#7870bc" stroke-width="2"/>
 <path d="m20.2 17.8a9.5 3.5 0 0 1-8.23 1.75" fill="none" stroke="#363b6c" stroke-width="2"/>
</svg>
