<?xml version="1.0" encoding="UTF-8"?>
<!-- Created with Inkscape (http://www.inkscape.org/) -->
<svg width="24" height="24" version="1.1" viewBox="0 0 24 24" xmlns="http://www.w3.org/2000/svg" xmlns:cc="http://creativecommons.org/ns#" xmlns:dc="http://purl.org/dc/elements/1.1/" xmlns:osb="http://www.openswatchbook.org/uri/2009/osb" xmlns:rdf="http://www.w3.org/1999/02/22-rdf-syntax-ns#">
 <metadata>
  <rdf:RDF>
   <cc:Work rdf:about="">
    <dc:format>image/svg+xml</dc:format>
    <dc:type rdf:resource="http://purl.org/dc/dcmitype/StillImage"/>
    <dc:title/>
   </cc:Work>
  </rdf:RDF>
 </metadata>
 <g fill-rule="evenodd">
  <rect width="24" height="24" fill="#161d3f" style="paint-order:normal"/>
  <rect width="24" height="12" fill="#363b6c" style="paint-order:normal"/>
  <path d="m15.3 3a4.73 4.72 0 0 1 0.943 2.82 4.73 4.72 0 0 1-4.73 4.72 4.73 4.72 0 0 1-3.47-1.52 6 5.99 0 0 0 6 5.82 6 5.99 0 0 0 6-5.99 6 5.99 0 0 0-4.75-5.85z" fill="#fff" style="paint-order:stroke fill markers"/>
 </g>
 <path d="m0 0v24h24v-24zm1 1h22v22h-22z" color="#000000" color-rendering="auto" dominant-baseline="auto" fill-opacity=".941" fill-rule="evenodd" image-rendering="auto" shape-rendering="auto" solid-color="#000000" style="font-feature-settings:normal;font-variant-alternates:normal;font-variant-caps:normal;font-variant-ligatures:normal;font-variant-numeric:normal;font-variant-position:normal;isolation:auto;mix-blend-mode:normal;paint-order:normal;shape-padding:0;text-decoration-color:#000000;text-decoration-line:none;text-decoration-style:solid;text-indent:0;text-orientation:mixed;text-transform:none;white-space:normal"/>
</svg>
